<svg xmlns="http://www.w3.org/2000/svg" width="407" height="399" viewBox="0 0 407 399">
<g>
<path d="M 185.50 395.08 C201.23,396.74 227.84,395.01 246.00,391.15 C280.86,383.72 315.04,364.91 341.58,338.52 C357.93,322.28 372.51,302.17 380.04,285.50 C381.28,282.75 383.53,277.74 385.05,274.37 C388.00,267.81 394.00,249.66 394.00,247.29 C394.00,246.38 394.82,245.98 396.25,246.18 C398.09,246.44 398.50,247.13 398.50,250.00 C398.50,253.40 398.62,253.51 402.75,253.81 L 407.00 254.11 L 407.00 399.00 L 0.00 399.00 L 0.00 79.72 C0.00,104.07 0.34,124.00 0.75,124.00 C4.38,124.00 16.83,120.50 18.84,118.91 C23.10,115.56 23.54,118.66 20.08,127.71 C16.98,135.80 12.98,149.80 10.57,161.00 C6.58,179.48 6.07,211.56 9.45,231.46 C10.29,236.39 10.60,240.80 10.15,241.25 C9.02,242.38 6.00,241.08 6.00,239.45 C6.00,237.36 4.27,236.81 2.04,238.21 C0.46,239.19 0.00,240.53 0.00,244.13 C0.00,247.23 0.48,248.97 1.42,249.33 C3.12,249.98 4.28,247.44 3.46,244.86 C3.13,243.84 3.35,243.00 3.93,243.00 C4.52,243.00 5.00,243.68 5.00,244.52 C5.00,245.64 5.66,245.87 7.47,245.42 C11.05,244.52 12.53,246.54 15.30,256.12 C24.41,287.53 43.35,318.08 68.25,341.52 C76.08,348.89 90.74,360.50 97.54,364.72 C105.96,369.94 117.26,376.13 121.00,377.58 C123.47,378.53 125.95,379.66 126.51,380.08 C128.52,381.60 144.71,387.12 154.00,389.45 C164.58,392.11 174.99,393.97 185.50,395.08 ZM 0.00 0.00 L 250.50 0.00 C158.09,0.00 94.00,0.37 94.00,0.90 C94.00,1.85 83.16,5.33 76.78,6.44 C74.74,6.79 67.64,8.86 61.00,11.04 C54.37,13.22 48.33,15.00 47.57,15.00 C46.82,15.00 43.57,16.39 40.35,18.08 C37.13,19.78 31.12,22.27 27.00,23.62 C22.88,24.97 15.11,28.18 9.75,30.75 L 0.00 35.43 ZM 147.21 367.22 C141.26,370.14 139.63,370.49 130.56,370.70 C125.03,370.83 119.38,370.57 118.00,370.12 C113.64,368.68 102.71,362.87 96.50,358.67 C85.36,351.16 71.09,339.00 73.39,339.00 C73.66,339.00 76.94,339.72 80.69,340.60 C95.11,343.98 108.30,340.65 119.50,330.79 C123.87,326.94 124.26,326.78 123.71,329.02 C121.16,339.43 120.56,340.90 118.35,342.08 C117.06,342.77 116.00,344.15 116.00,345.15 C116.00,346.97 120.04,350.24 122.78,350.64 C124.91,350.96 126.35,352.64 127.58,356.25 C128.41,358.70 129.65,359.79 133.08,361.05 C135.51,361.94 138.21,362.99 139.08,363.38 C139.95,363.76 141.89,363.61 143.39,363.04 C144.90,362.47 147.23,362.00 148.57,362.00 C149.90,362.00 151.00,361.59 151.00,361.09 C151.00,360.60 151.87,360.41 152.93,360.69 C156.16,361.54 154.19,363.78 147.21,367.22 ZM 380.94 128.33 C383.41,134.15 384.99,139.33 384.81,141.00 L 384.50 143.84 L 379.77 139.61 C375.39,135.68 363.95,130.00 360.44,130.00 C359.35,130.00 358.92,128.95 358.94,126.25 C358.95,124.19 358.79,120.77 358.58,118.66 C358.29,115.79 358.68,114.40 360.10,113.18 C362.62,111.03 362.52,110.20 359.00,103.50 C357.35,100.36 356.00,97.14 356.00,96.34 C356.00,95.54 355.64,95.10 355.21,95.37 C354.77,95.64 354.35,95.06 354.28,94.08 C354.04,90.84 359.03,92.99 364.09,98.29 C369.23,103.68 374.35,112.81 380.94,128.33 ZM 173.67 23.57 C173.97,24.36 173.73,25.00 173.14,25.00 C171.69,25.00 170.15,21.83 170.76,20.11 C171.11,19.15 170.84,18.98 169.88,19.55 C168.71,20.26 168.71,20.13 169.87,18.69 C170.63,17.76 171.83,17.00 172.54,17.00 C173.25,17.00 173.98,16.66 174.17,16.25 C175.28,13.74 189.75,9.00 196.31,9.00 C202.02,9.00 207.88,15.20 207.45,20.78 C207.18,24.16 206.61,24.29 202.56,21.90 C199.21,19.93 198.50,19.84 194.97,21.01 C192.10,21.96 190.71,22.01 189.73,21.19 C187.51,19.35 180.21,18.58 178.48,20.02 C177.64,20.71 176.67,21.00 176.32,20.65 C175.27,19.61 173.08,22.03 173.67,23.57 ZM 366.64 148.16 C366.04,149.72 365.32,151.00 365.03,151.00 C364.74,150.99 363.77,148.18 362.89,144.75 C362.00,141.31 360.94,137.71 360.53,136.75 C359.92,135.31 360.31,135.00 362.77,135.00 C364.41,135.00 366.32,135.68 367.00,136.50 C367.68,137.32 368.79,138.00 369.45,138.00 C370.12,138.00 372.65,139.84 375.08,142.08 L 379.50 146.16 L 373.60 145.73 C367.89,145.32 367.68,145.40 366.64,148.16 ZM 85.00 336.43 C85.00,337.35 78.84,336.90 74.32,335.65 C70.41,334.57 62.00,328.58 62.00,326.87 C62.00,326.45 63.35,326.57 65.00,327.15 C66.65,327.73 68.00,328.65 68.00,329.20 C68.00,329.76 68.68,329.95 69.50,329.64 C70.32,329.32 71.00,329.44 71.00,329.91 C71.00,330.38 73.02,330.33 75.49,329.80 C78.94,329.06 80.30,329.15 81.33,330.19 C82.74,331.59 85.00,335.45 85.00,336.43 ZM 382.53 110.07 C384.23,113.35 384.18,116.41 382.44,115.22 C381.86,114.83 379.43,110.90 377.05,106.50 C374.66,102.10 371.49,96.70 370.01,94.50 C368.52,92.30 366.98,89.16 366.57,87.52 L 365.85 84.54 L 368.45 87.52 C372.68,92.36 373.00,92.84 373.00,94.46 C373.00,95.31 373.37,96.00 373.83,96.00 C374.29,96.00 375.28,97.24 376.03,98.75 C376.79,100.26 378.52,102.74 379.89,104.25 C381.26,105.76 382.05,107.00 381.66,107.00 C381.27,107.00 381.66,108.38 382.53,110.07 ZM 391.32 130.25 C391.99,134.78 389.98,135.44 388.09,131.31 C386.60,128.02 385.02,120.00 385.88,120.01 C387.24,120.02 390.80,126.72 391.32,130.25 ZM 396.00 146.62 C396.00,149.10 394.22,149.92 393.56,147.75 C393.35,147.06 392.69,144.99 392.10,143.14 C391.45,141.11 391.38,139.15 391.92,138.19 C392.63,136.91 393.12,137.35 394.40,140.42 C395.28,142.52 396.00,145.31 396.00,146.62 ZM 361.37 77.52 C362.26,79.85 359.31,79.28 357.56,76.78 C356.70,75.56 356.00,74.11 356.00,73.58 C356.00,73.04 354.56,71.11 352.80,69.30 C351.05,67.48 349.84,66.00 350.13,66.00 C351.05,66.00 360.77,75.97 361.37,77.52 ZM 56.97 318.47 C57.64,319.27 58.03,320.37 57.84,320.90 C57.34,322.34 54.00,320.21 54.00,318.45 C54.00,316.59 55.42,316.59 56.97,318.47 ZM 349.00 128.43 C349.00,129.35 348.14,130.00 346.92,130.00 C344.48,130.00 344.82,127.66 347.33,127.18 C348.32,126.99 349.00,127.50 349.00,128.43 ZM 347.33 89.47 C347.03,91.10 345.52,91.11 343.46,89.49 C341.59,88.02 341.63,87.97 344.50,88.23 C346.15,88.38 347.42,88.94 347.33,89.47 Z" fill="rgb(16,31,83)"/>
<path d="M 148.03 366.81 C147.83,366.91 147.63,367.01 147.43,367.11 C154.23,363.73 156.12,361.53 152.93,360.69 C151.87,360.41 151.00,360.60 151.00,361.09 C151.00,361.59 149.90,362.00 148.57,362.00 C147.23,362.00 144.90,362.47 143.39,363.04 C141.89,363.61 139.95,363.76 139.08,363.38 C138.21,362.99 135.51,361.94 133.08,361.05 C129.65,359.79 128.41,358.70 127.58,356.25 C126.35,352.64 124.91,350.96 122.78,350.64 C120.04,350.24 116.00,346.97 116.00,345.15 C116.00,344.15 117.06,342.77 118.35,342.08 C120.56,340.90 121.16,339.43 123.71,329.02 C124.26,326.78 123.87,326.94 119.50,330.79 C115.02,334.73 110.23,337.63 105.16,339.47 C117.09,334.92 127.93,323.98 139.13,305.78 C142.75,299.89 157.68,271.47 169.48,248.00 C185.29,216.56 206.55,180.00 209.04,180.00 C209.46,180.00 210.07,184.84 210.39,190.75 C211.99,220.03 213.40,235.70 215.57,248.13 L 217.95 261.76 L 209.65 277.13 C205.09,285.58 198.87,297.23 195.83,303.00 C182.90,327.53 168.06,350.67 160.36,358.33 C157.56,361.12 152.34,364.71 148.03,366.81 ZM 188.88 0.06 C165.46,0.19 150.19,0.50 150.43,0.89 C150.73,1.37 150.31,2.33 149.50,3.00 C148.69,3.67 148.24,4.58 148.51,5.01 C148.77,5.44 148.15,6.83 147.12,8.10 C145.65,9.91 144.28,10.39 140.67,10.36 C137.93,10.33 135.90,10.81 135.62,11.55 C135.36,12.23 132.54,13.98 129.35,15.44 C126.17,16.90 123.32,18.46 123.03,18.92 C122.74,19.37 118.90,21.56 114.50,23.78 C77.25,42.58 47.82,72.07 28.14,110.30 C24.09,118.17 20.63,126.18 17.76,134.34 C18.56,131.88 19.34,129.63 20.08,127.71 C23.54,118.66 23.10,115.56 18.84,118.91 C16.83,120.50 4.38,124.00 0.75,124.00 C0.34,124.00 0.00,104.07 0.00,79.72 L 0.00 35.43 L 9.75 30.75 C15.11,28.18 22.88,24.97 27.00,23.62 C31.12,22.27 37.13,19.78 40.35,18.08 C43.57,16.39 46.82,15.00 47.57,15.00 C48.33,15.00 54.37,13.22 61.00,11.04 C67.64,8.86 74.74,6.79 76.78,6.44 C83.16,5.33 94.00,1.85 94.00,0.90 C94.00,0.50 130.82,0.19 188.88,0.06 ZM 391.32 130.25 C390.80,126.72 387.24,120.02 385.88,120.01 C385.23,120.00 385.98,124.61 387.03,128.28 C376.91,102.09 361.06,78.35 338.32,55.14 C330.91,47.58 330.22,46.54 331.07,44.31 C331.59,42.95 331.75,41.40 331.42,40.87 C331.09,40.34 331.39,39.23 332.09,38.40 C333.68,36.48 339.80,37.36 344.63,40.21 C346.48,41.30 348.00,41.72 348.00,41.13 C348.00,40.54 348.66,40.32 349.46,40.62 C350.27,40.93 352.29,40.50 353.96,39.67 C356.53,38.39 357.43,38.36 359.75,39.47 C361.26,40.19 365.31,41.08 368.74,41.44 C372.18,41.80 377.58,43.04 380.74,44.19 C388.66,47.07 399.14,47.72 401.39,45.47 C403.44,43.41 402.95,41.44 398.40,33.68 C396.53,30.48 395.00,27.45 395.00,26.96 C395.00,25.02 391.23,24.29 385.00,25.02 C381.42,25.44 370.79,26.09 361.36,26.47 L 344.22 27.15 L 341.11 24.11 C337.43,20.51 337.28,19.18 340.15,15.54 C341.33,14.04 342.41,11.73 342.56,10.41 C342.70,9.09 343.13,6.20 343.50,4.00 L 344.18 0.00 L 407.00 0.00 L 407.00 254.11 L 402.75 253.81 C398.62,253.51 398.50,253.40 398.50,250.00 C398.50,247.13 398.09,246.44 396.25,246.18 C395.42,246.06 394.79,246.15 394.41,246.42 C402.16,214.02 401.71,176.48 392.47,144.43 C391.25,140.21 389.89,136.05 388.41,131.95 C390.19,135.35 391.95,134.53 391.32,130.25 ZM 273.86 175.95 C268.71,181.47 264.23,185.99 263.90,185.99 C262.00,186.01 261.44,152.44 263.00,132.00 L 263.95 119.50 L 267.72 116.20 C274.87,109.96 289.52,100.23 298.50,95.76 C313.20,88.44 320.59,86.52 334.02,86.51 C345.10,86.50 345.80,86.63 352.43,89.89 C355.63,91.47 358.43,93.23 361.01,95.43 C357.19,92.33 354.09,91.51 354.28,94.08 C354.35,95.06 354.77,95.64 355.21,95.37 C355.64,95.10 356.00,95.54 356.00,96.34 C356.00,97.14 357.35,100.36 359.00,103.50 C362.52,110.20 362.62,111.03 360.10,113.18 C358.68,114.40 358.29,115.79 358.58,118.66 C358.79,120.77 358.95,124.19 358.94,126.25 C358.92,128.95 359.35,130.00 360.44,130.00 C361.68,130.00 363.92,130.71 366.49,131.81 C357.90,128.92 348.13,129.13 337.85,132.54 C314.45,140.30 294.48,153.85 273.86,175.95 ZM 56.97 318.47 C55.46,316.65 54.09,316.59 54.00,318.29 C53.38,317.02 52.82,315.69 52.32,314.30 C49.63,306.89 49.46,302.54 51.43,291.50 C53.19,281.68 57.83,268.73 62.01,262.00 L 62.66 260.95 C71.51,246.69 73.47,243.53 74.61,243.81 C74.96,243.89 75.23,244.30 75.60,244.81 C76.80,246.44 81.00,247.24 81.00,245.83 C81.00,245.37 82.15,245.00 83.55,245.00 C84.95,245.00 87.25,243.84 88.66,242.43 C90.08,241.02 91.97,239.87 92.87,239.88 C94.98,239.91 108.87,239.75 116.15,239.61 C119.26,239.55 121.60,239.84 121.34,240.25 C121.09,240.66 121.36,241.00 121.94,241.00 C124.08,241.00 122.84,243.34 115.75,252.62 C111.76,257.85 108.48,262.43 108.45,262.81 C108.42,263.19 104.55,269.35 99.85,276.50 C90.23,291.11 84.78,301.96 83.12,309.80 C81.59,317.02 81.78,327.66 83.53,332.50 C83.77,333.16 83.99,333.79 84.19,334.36 C83.40,332.87 82.20,331.06 81.33,330.19 C80.30,329.15 78.94,329.06 75.49,329.80 C73.02,330.33 71.00,330.38 71.00,329.91 C71.00,329.44 70.32,329.32 69.50,329.64 C68.68,329.95 68.00,329.76 68.00,329.20 C68.00,328.65 66.65,327.73 65.00,327.15 C63.35,326.57 62.00,326.45 62.00,326.87 C62.00,328.40 68.73,333.36 72.95,335.16 C65.21,332.54 59.18,327.54 55.13,320.42 C56.15,321.32 57.53,321.79 57.84,320.90 C58.03,320.37 57.64,319.27 56.97,318.47 ZM 366.64 148.16 C367.68,145.40 367.89,145.32 373.60,145.73 L 379.50 146.16 L 375.08 142.08 C372.65,139.84 370.12,138.00 369.45,138.00 C368.79,138.00 367.68,137.32 367.00,136.50 C366.97,136.46 366.93,136.42 366.89,136.38 C367.75,137.05 369.80,138.15 372.00,139.09 C377.20,141.33 387.29,151.00 388.93,155.32 C389.45,156.69 390.64,163.36 391.57,170.15 C393.46,183.92 393.09,200.29 390.50,217.00 C389.70,222.23 389.03,226.84 389.02,227.25 C388.98,228.76 387.21,227.94 385.75,225.75 C384.37,223.68 383.44,223.49 374.37,223.39 C368.94,223.34 363.83,223.15 363.00,222.99 C362.17,222.83 360.11,223.01 358.40,223.40 L 355.30 224.09 L 356.07 219.80 C363.69,177.37 365.55,156.72 362.43,143.02 C362.58,143.59 362.74,144.17 362.89,144.75 C363.77,148.18 364.74,150.99 365.03,151.00 C365.32,151.00 366.04,149.72 366.64,148.16 ZM 250.50 0.00 L 335.75 0.00 C328.58,0.00 326.65,0.38 322.91,2.51 C314.89,7.09 296.18,16.00 294.60,16.00 C293.74,16.00 292.33,17.09 291.45,18.43 C290.01,20.63 286.00,21.66 286.00,19.83 C286.00,19.43 284.03,18.22 281.63,17.16 C275.80,14.58 275.44,13.64 279.52,11.69 C283.38,9.85 283.32,7.86 279.30,4.68 C278.04,3.68 277.00,2.21 277.00,1.43 C277.00,0.33 269.60,0.05 228.61,0.01 C235.71,0.00 243.01,0.00 250.50,0.00 ZM 366.76 11.95 C367.72,12.52 369.62,12.88 370.98,12.74 C377.03,12.15 375.33,0.00 369.20,0.00 C366.94,0.00 366.03,0.72 364.68,3.55 C362.84,7.40 363.49,10.00 366.76,11.95 ZM 382.53 110.07 C381.66,108.38 381.27,107.00 381.66,107.00 C382.05,107.00 381.26,105.76 379.89,104.25 C378.52,102.74 376.79,100.26 376.03,98.75 C375.28,97.24 374.29,96.00 373.83,96.00 C373.37,96.00 373.00,95.31 373.00,94.46 C373.00,92.84 372.68,92.36 368.45,87.52 L 365.85 84.54 L 366.57 87.52 C366.98,89.16 368.52,92.30 370.01,94.50 C371.49,96.70 374.66,102.10 377.05,106.50 C379.43,110.90 381.86,114.83 382.44,115.22 C384.18,116.41 384.23,113.35 382.53,110.07 ZM 7.28 205.71 C7.29,206.14 7.31,206.57 7.33,207.00 C7.97,223.39 10.06,237.83 14.02,251.97 C11.98,245.95 10.46,244.67 7.47,245.42 C5.66,245.87 5.00,245.64 5.00,244.52 C5.00,243.68 4.52,243.00 3.93,243.00 C3.35,243.00 3.13,243.84 3.46,244.86 C4.28,247.44 3.12,249.98 1.42,249.33 C0.48,248.97 0.00,247.23 0.00,244.13 C0.00,240.53 0.46,239.19 2.04,238.21 C4.27,236.81 6.00,237.36 6.00,239.45 C6.00,241.08 9.02,242.38 10.15,241.25 C10.60,240.80 10.29,236.39 9.45,231.46 C8.20,224.11 7.49,215.09 7.28,205.71 ZM 396.00 146.62 C396.00,145.31 395.28,142.52 394.40,140.42 C393.12,137.35 392.63,136.91 391.92,138.19 C391.38,139.15 391.45,141.11 392.10,143.14 C392.69,144.99 393.35,147.06 393.56,147.75 C394.22,149.92 396.00,149.10 396.00,146.62 ZM 361.37 77.52 C360.77,75.97 351.05,66.00 350.13,66.00 C349.84,66.00 351.05,67.48 352.80,69.30 C354.56,71.11 356.00,73.04 356.00,73.58 C356.00,74.11 356.70,75.56 357.56,76.78 C359.31,79.28 362.26,79.85 361.37,77.52 ZM 327.56 42.20 C328.51,45.19 327.51,45.34 324.41,42.68 L 321.59 40.25 L 324.27 40.25 C326.04,40.25 327.15,40.91 327.56,42.20 ZM 14.00 82.06 C14.00,84.40 16.81,84.66 17.68,82.40 C18.31,80.75 16.22,78.74 14.80,79.62 C14.36,79.90 14.00,80.99 14.00,82.06 ZM 349.00 128.43 C349.00,127.50 348.32,126.99 347.33,127.18 C344.82,127.66 344.48,130.00 346.92,130.00 C348.14,130.00 349.00,129.35 349.00,128.43 ZM 347.33 89.47 C347.42,88.94 346.15,88.38 344.50,88.23 C341.63,87.97 341.59,88.02 343.46,89.49 C345.52,91.11 347.03,91.10 347.33,89.47 ZM 16.57 260.26 C19.25,268.29 22.56,276.32 26.57,284.66 C30.35,292.50 34.57,299.98 39.25,307.10 C29.46,292.37 21.72,276.47 16.57,260.26 ZM 10.66 160.58 C9.64,165.86 8.84,171.21 8.27,176.64 C8.82,170.87 9.59,165.52 10.57,161.00 C10.60,160.86 10.63,160.72 10.66,160.58 ZM 84.98 336.75 C85.00,337.08 83.32,337.06 81.17,336.84 C83.13,336.99 84.63,336.93 84.94,336.58 C84.97,336.67 84.98,336.73 84.98,336.75 ZM 366.62 136.14 C365.76,135.49 364.18,135.00 362.79,135.00 L 362.83 135.00 C364.51,135.00 366.16,135.45 366.50,136.00 C366.53,136.04 366.57,136.09 366.62,136.14 ZM 380.94 128.33 C377.57,120.40 374.59,114.14 371.79,109.19 C374.65,114.20 377.58,120.43 380.94,128.33 ZM 360.35 135.50 C360.20,135.76 360.28,136.16 360.53,136.75 C360.65,137.02 360.81,137.51 361.02,138.15 C360.85,137.67 360.67,137.21 360.49,136.75 C360.25,136.16 360.18,135.76 360.35,135.50 ZM 138.33 370.26 C136.38,370.53 134.02,370.62 130.53,370.70 C126.60,370.79 122.60,370.69 120.13,370.45 C122.60,370.68 126.61,370.79 130.56,370.70 C134.01,370.62 136.39,370.52 138.33,370.26 ZM 385.21 274.00 C385.16,274.13 385.10,274.25 385.05,274.37 C383.53,277.74 381.28,282.75 380.04,285.50 C381.28,282.75 383.51,277.80 384.99,274.50 Z" fill="rgb(39,55,127)"/>
<path d="M 188.88 0.06 C201.21,0.04 214.51,0.02 228.61,0.01 C269.60,0.05 277.00,0.33 277.00,1.43 C277.00,2.21 278.04,3.68 279.30,4.68 C283.32,7.86 283.38,9.85 279.52,11.69 C275.44,13.64 275.80,14.58 281.63,17.16 C284.03,18.22 286.00,19.43 286.00,19.83 C286.00,21.66 290.01,20.63 291.45,18.43 C292.33,17.09 293.74,16.00 294.60,16.00 C296.18,16.00 314.89,7.09 322.91,2.51 C326.65,0.38 328.58,0.00 335.75,0.00 L 344.18 0.00 L 343.50 4.00 C343.13,6.20 342.70,9.09 342.56,10.41 C342.41,11.73 341.33,14.04 340.15,15.54 C337.28,19.18 337.43,20.51 341.11,24.11 L 344.22 27.15 L 361.36 26.47 C370.79,26.09 381.42,25.44 385.00,25.02 C391.23,24.29 395.00,25.02 395.00,26.96 C395.00,27.45 396.53,30.48 398.40,33.68 C402.95,41.44 403.44,43.41 401.39,45.47 C399.14,47.72 388.66,47.07 380.74,44.19 C377.58,43.04 372.18,41.80 368.74,41.44 C365.31,41.08 361.26,40.19 359.75,39.47 C357.43,38.36 356.53,38.39 353.96,39.67 C352.29,40.50 350.27,40.93 349.46,40.62 C348.66,40.32 348.00,40.54 348.00,41.13 C348.00,41.72 346.48,41.30 344.63,40.21 C339.80,37.36 333.68,36.48 332.09,38.40 C331.39,39.23 331.09,40.34 331.42,40.87 C331.75,41.40 331.59,42.95 331.07,44.31 C330.22,46.54 330.91,47.58 338.32,55.14 C343.16,60.08 347.69,65.04 351.92,70.05 C343.61,60.78 323.25,42.03 321.37,42.01 C320.75,42.00 319.66,41.30 318.95,40.44 C318.24,39.58 315.22,37.26 312.24,35.28 C309.26,33.30 306.30,30.86 305.67,29.84 C305.04,28.83 303.80,28.00 302.93,28.00 C302.06,28.00 294.40,24.80 285.92,20.89 C268.26,12.76 263.51,10.99 250.13,7.56 C235.02,3.69 228.02,2.86 188.70,0.32 C186.89,0.20 185.43,0.12 184.23,0.09 C185.74,0.08 187.29,0.07 188.88,0.06 ZM 109.45 263.00 C108.08,264.47 106.00,267.25 103.64,270.67 C106.47,266.27 108.43,263.08 108.45,262.81 C108.48,262.43 111.76,257.85 115.75,252.62 C122.84,243.34 124.08,241.00 121.94,241.00 C121.36,241.00 121.09,240.66 121.34,240.25 C121.60,239.84 119.26,239.55 116.15,239.61 C108.87,239.75 94.98,239.91 92.87,239.88 C91.97,239.87 90.08,241.02 88.66,242.43 C87.25,243.84 84.95,245.00 83.55,245.00 C82.15,245.00 81.00,245.37 81.00,245.83 C81.00,247.24 76.80,246.44 75.60,244.81 C75.23,244.30 74.96,243.89 74.61,243.81 C73.47,243.53 71.51,246.69 62.66,260.95 L 62.01 262.00 C61.76,262.40 61.51,262.81 61.27,263.25 C61.38,262.99 61.50,262.74 61.60,262.50 C67.60,249.20 94.68,208.66 114.60,183.18 C117.62,179.32 118.83,179.60 116.77,183.68 C112.88,191.39 112.38,192.64 112.76,193.78 C112.99,194.46 113.55,194.78 114.01,194.50 C117.21,192.52 134.11,190.40 144.25,190.70 C155.76,191.05 163.01,189.89 165.10,187.38 C165.73,186.62 166.66,186.00 167.17,186.00 C168.67,186.00 152.44,208.35 135.96,229.00 C131.79,234.23 124.86,243.23 120.55,249.00 C116.24,254.77 111.24,261.08 109.45,263.00 ZM 181.80 0.11 C179.74,0.23 178.80,0.68 177.70,1.63 C174.57,4.29 171.30,6.00 169.33,6.00 C168.39,6.00 164.67,6.70 161.06,7.54 C121.26,16.91 89.07,34.73 62.31,62.22 C77.34,46.62 94.83,33.71 114.50,23.78 C118.90,21.56 122.74,19.37 123.03,18.92 C123.32,18.46 126.17,16.90 129.35,15.44 C132.54,13.98 135.36,12.23 135.62,11.55 C135.90,10.81 137.93,10.33 140.67,10.36 C144.28,10.39 145.65,9.91 147.12,8.10 C148.15,6.83 148.77,5.44 148.51,5.01 C148.24,4.58 148.69,3.67 149.50,3.00 C150.31,2.33 150.73,1.37 150.43,0.89 C150.21,0.54 162.44,0.25 181.80,0.11 ZM 366.76 11.95 C363.49,10.00 362.84,7.40 364.68,3.55 C366.03,0.72 366.94,0.00 369.20,0.00 C375.33,0.00 377.03,12.15 370.98,12.74 C369.62,12.88 367.72,12.52 366.76,11.95 ZM 383.86 136.18 C385.86,142.07 387.16,147.17 386.62,147.71 C386.39,147.94 384.94,146.41 383.40,144.32 C381.42,141.61 379.58,139.55 377.49,137.83 C378.37,138.44 379.14,139.04 379.77,139.61 L 384.50 143.84 L 384.81 141.00 C384.90,140.16 384.54,138.43 383.86,136.18 ZM 327.56 42.20 C327.15,40.91 326.04,40.25 324.27,40.25 L 321.59 40.25 L 324.41 42.68 C327.51,45.34 328.51,45.19 327.56,42.20 ZM 14.00 82.06 C14.00,80.99 14.36,79.90 14.80,79.62 C16.22,78.74 18.31,80.75 17.68,82.40 C16.81,84.66 14.00,84.40 14.00,82.06 ZM 368.00 6.50 C368.00,7.32 368.67,8.00 369.50,8.00 C370.33,8.00 371.00,7.32 371.00,6.50 C371.00,5.68 370.33,5.00 369.50,5.00 C368.67,5.00 368.00,5.68 368.00,6.50 ZM 371.39 96.80 C377.64,106.96 382.83,117.41 387.03,128.28 C387.10,128.52 387.18,128.77 387.25,129.01 C382.97,117.96 377.59,107.05 371.39,96.80 ZM 56.42 273.93 C54.26,279.69 52.40,286.07 51.43,291.50 C52.66,284.64 54.11,279.46 56.42,273.93 ZM 86.26 300.46 C84.85,303.92 83.58,307.64 83.12,309.80 C83.70,307.06 84.74,303.96 86.26,300.46 ZM 368.38 132.65 C368.21,132.58 368.03,132.51 367.86,132.44 C365.99,131.69 364.11,131.09 362.20,130.64 C363.66,130.95 365.09,131.34 366.49,131.81 C367.10,132.07 367.74,132.35 368.38,132.65 ZM 328.53 136.01 C326.03,137.08 323.41,138.28 320.66,139.63 C318.92,140.48 317.20,141.37 315.49,142.30 C319.75,139.95 324.08,137.86 328.53,136.01 ZM 388.23 131.60 C388.29,131.72 388.35,131.84 388.41,131.95 C389.89,136.05 391.25,140.21 392.47,144.43 C391.23,140.16 389.82,135.87 388.23,131.60 ZM 361.01 95.43 C358.43,93.23 355.63,91.47 352.43,89.89 C356.12,91.71 359.25,93.74 362.11,96.37 C361.74,96.03 361.37,95.72 361.01,95.43 ZM 369.76 105.77 C371.62,108.70 373.48,112.12 375.46,116.17 C374.20,113.61 372.99,111.29 371.79,109.19 C371.10,107.97 370.43,106.84 369.76,105.77 ZM 378.21 122.08 C378.80,123.39 379.41,124.75 380.02,126.18 C380.22,126.63 380.41,127.09 380.61,127.55 C379.79,125.63 378.99,123.81 378.21,122.08 Z" fill="rgb(61,96,144)"/>
<path d="M 173.67 23.57 C173.08,22.03 175.27,19.61 176.32,20.65 C176.67,21.00 177.64,20.71 178.48,20.02 C180.21,18.58 187.51,19.35 189.73,21.19 C190.71,22.01 192.10,21.96 194.97,21.01 C198.50,19.84 199.21,19.93 202.56,21.90 C206.61,24.29 207.18,24.16 207.45,20.78 C207.57,19.13 207.15,17.42 206.34,15.84 C209.47,20.52 212.58,27.13 213.67,32.00 C216.07,42.69 216.51,65.64 214.57,79.00 C213.65,85.32 212.49,91.85 211.98,93.50 C211.47,95.15 209.62,101.22 207.87,107.00 C199.59,134.30 185.32,161.73 161.81,194.87 C165.62,189.44 167.76,186.00 167.17,186.00 C166.66,186.00 165.73,186.62 165.10,187.38 C163.01,189.89 155.76,191.05 144.25,190.70 C134.11,190.40 117.21,192.52 114.01,194.50 C113.55,194.78 112.99,194.46 112.76,193.78 C112.38,192.64 112.88,191.39 116.77,183.68 C118.41,180.44 117.98,179.60 116.22,181.32 C120.32,176.07 124.66,170.62 129.33,164.86 C153.35,135.20 166.17,111.51 174.16,82.00 C177.15,70.93 177.85,47.64 175.48,37.81 C173.42,29.26 171.73,25.53 168.22,21.77 L 165.66 19.04 L 170.58 16.99 C172.21,16.32 174.31,15.41 176.20,14.57 C175.12,15.18 174.39,15.76 174.17,16.25 C173.98,16.66 173.25,17.00 172.54,17.00 C171.83,17.00 170.63,17.76 169.87,18.69 C168.71,20.13 168.71,20.26 169.88,19.55 C170.84,18.98 171.11,19.15 170.76,20.11 C170.15,21.83 171.69,25.00 173.14,25.00 C173.73,25.00 173.97,24.36 173.67,23.57 ZM 54.16 178.48 C44.62,183.17 36.69,187.00 36.53,187.00 C36.37,187.00 35.63,186.26 34.87,185.35 C33.79,184.05 33.51,178.75 33.54,160.60 C33.58,138.49 33.70,137.07 36.35,127.50 C39.82,114.99 42.47,106.87 43.88,104.40 C44.48,103.36 46.08,100.03 47.43,97.00 C55.16,79.71 67.68,62.60 80.81,51.40 C102.05,33.27 133.54,17.68 160.50,11.95 C175.98,8.65 178.21,9.80 165.74,14.64 C142.84,23.54 120.13,39.34 106.79,55.65 C85.02,82.26 75.27,112.51 76.13,150.81 L 76.50 167.11 L 74.00 168.54 C72.62,169.32 63.70,173.80 54.16,178.48 ZM 98.13 205.34 C88.81,218.40 79.51,232.21 72.48,243.43 C76.09,237.61 80.20,231.24 84.29,225.17 C88.81,218.45 93.36,211.93 98.13,205.34 ZM 180.24 12.73 C184.84,10.67 189.55,9.47 193.56,9.20 C189.55,9.72 184.28,11.17 180.24,12.73 ZM 200.01 9.82 C200.87,10.10 201.62,10.49 202.23,10.96 C202.57,11.23 202.93,11.56 203.30,11.94 C202.30,11.06 201.18,10.33 200.01,9.82 ZM 154.37 205.12 C148.72,212.75 142.60,220.69 135.96,229.00 C142.50,220.81 149.00,212.35 154.37,205.12 Z" fill="rgb(58,156,66)"/>
<path d="M 157.67 111.43 C156.47,113.07 154.73,116.02 153.78,117.96 C151.88,121.89 151.38,120.72 153.09,116.32 C153.70,114.77 154.30,112.60 154.44,111.50 C154.58,110.40 155.84,105.45 157.24,100.50 C161.47,85.54 162.50,78.24 162.44,63.50 C162.40,49.83 161.74,45.74 158.36,38.24 C155.54,31.95 149.64,30.67 141.80,34.63 C135.19,37.98 135.43,35.31 142.19,30.46 C152.87,22.79 161.72,20.82 165.64,25.25 C174.68,35.48 174.98,66.75 166.26,90.50 C164.85,94.35 162.82,99.96 161.76,102.96 C160.70,105.97 158.86,109.78 157.67,111.43 ZM 109.00 332.83 C103.15,335.93 97.05,337.19 93.09,336.11 C90.10,335.30 86.91,329.42 86.25,323.52 C85.34,315.42 90.03,300.96 97.66,288.40 C100.05,284.46 102.00,280.95 102.00,280.60 C102.00,280.24 104.70,276.52 108.00,272.34 C111.30,268.15 114.00,263.94 114.00,262.99 C114.00,260.85 116.53,258.59 117.96,259.47 C119.46,260.40 119.25,261.83 117.16,264.85 C113.21,270.53 104.80,288.03 100.98,298.50 C96.84,309.85 95.91,322.78 98.97,326.47 C101.08,329.00 107.82,328.35 114.85,324.92 C118.32,323.22 121.46,322.12 121.81,322.48 C122.77,323.44 115.27,329.50 109.00,332.83 ZM 325.26 320.25 C320.89,324.81 316.82,323.90 309.16,316.62 C305.53,313.18 295.00,298.78 295.00,297.27 C295.00,297.01 292.81,292.24 290.13,286.65 C283.26,272.33 281.50,268.17 280.02,262.72 C279.31,260.10 278.34,257.71 277.86,257.42 C277.39,257.12 277.00,255.91 277.00,254.72 C277.00,252.59 277.02,252.59 278.37,254.53 C279.13,255.61 280.06,257.93 280.44,259.68 C280.82,261.43 281.81,263.43 282.65,264.12 C283.48,264.82 285.72,268.46 287.61,272.23 C293.73,284.36 305.58,299.00 315.29,306.41 C318.36,308.75 319.58,309.11 322.55,308.56 C326.14,307.88 327.73,306.02 333.28,295.96 C335.86,291.28 336.35,292.87 334.51,299.97 C332.32,308.40 328.43,316.94 325.26,320.25 ZM 230.50 386.56 C222.44,388.36 192.54,389.23 181.27,388.00 C167.39,386.48 158.20,383.06 167.75,382.96 C180.31,382.84 197.28,380.97 203.75,379.01 C210.63,376.92 211.64,376.86 223.22,377.98 C230.79,378.71 240.33,378.89 248.34,378.44 C258.88,377.86 261.18,377.97 260.81,379.06 C260.57,379.79 259.05,380.78 257.43,381.25 C247.89,384.03 243.55,385.00 240.70,385.00 C238.94,385.00 234.35,385.70 230.50,386.56 ZM 27.09 256.81 C27.70,261.28 27.98,265.51 27.74,266.22 C27.27,267.55 25.24,263.37 23.03,256.50 C22.32,254.30 21.40,252.05 20.99,251.50 C20.58,250.95 20.00,248.93 19.72,247.00 C17.65,232.96 15.82,221.86 14.98,218.24 C13.11,210.10 13.97,168.00 16.02,168.00 C16.42,168.00 17.01,171.94 17.32,176.75 C17.82,184.43 18.71,190.14 21.95,206.50 C22.38,208.70 23.47,212.17 24.37,214.22 C25.64,217.13 26.00,221.29 26.00,233.31 C26.00,241.76 26.49,252.34 27.09,256.81 ZM 332.42 61.13 C337.71,66.22 339.00,67.93 337.50,67.92 C335.67,67.91 331.46,65.15 326.57,60.75 C325.50,59.79 320.54,56.98 315.56,54.50 C300.34,46.95 293.57,48.42 283.72,61.39 C280.79,65.25 280.00,65.84 280.00,64.15 C280.00,60.83 283.63,52.08 287.16,46.91 C290.79,41.60 294.53,39.00 298.57,39.00 C304.32,39.00 320.24,49.41 332.42,61.13 ZM 357.42 178.25 C356.74,181.13 355.00,182.06 355.00,179.54 C355.00,178.74 354.54,173.45 353.98,167.79 C352.63,154.19 350.37,146.53 346.61,142.77 C343.82,139.98 343.25,139.81 338.35,140.39 C335.45,140.73 329.43,142.61 324.98,144.57 C320.53,146.53 316.43,147.98 315.88,147.79 C314.34,147.28 320.52,143.09 329.43,138.63 C336.71,134.98 338.25,134.58 345.15,134.54 C354.15,134.49 356.10,135.70 358.02,142.58 C359.28,147.09 358.86,172.15 357.42,178.25 ZM 287.02 21.40 C267.90,12.95 247.27,6.99 228.54,4.56 C212.88,2.52 183.08,2.46 175.23,4.46 C174.45,4.66 173.48,4.90 172.39,5.15 C174.02,4.40 175.88,3.17 177.70,1.63 C178.80,0.68 179.74,0.23 181.80,0.11 C182.60,0.10 183.41,0.10 184.23,0.09 C185.43,0.12 186.89,0.20 188.70,0.32 C228.02,2.86 235.02,3.69 250.13,7.56 C263.51,10.99 268.26,12.76 285.92,20.89 C286.29,21.06 286.65,21.23 287.02,21.40 ZM 242.25 16.05 C231.41,16.73 228.25,16.43 226.00,14.52 C225.18,13.81 223.48,12.93 222.24,12.55 C220.99,12.17 220.21,11.47 220.50,10.99 C221.16,9.93 238.84,10.93 241.25,12.17 C242.97,13.06 243.72,15.95 242.25,16.05 ZM 383.86 136.18 C383.19,134.00 382.20,131.31 381.00,128.47 C385.71,139.19 388.06,146.43 387.54,148.83 C387.25,150.12 387.45,151.97 387.99,153.54 C384.92,148.77 376.58,141.06 372.00,139.09 C369.92,138.20 367.97,137.17 367.04,136.49 C367.37,136.65 367.77,136.64 368.09,136.44 C368.61,136.12 371.29,137.23 374.03,138.92 C379.51,142.29 379.21,140.23 373.64,136.26 C369.49,133.31 365.27,131.34 360.71,130.36 C361.21,130.45 361.71,130.54 362.20,130.64 C364.11,131.09 365.99,131.69 367.86,132.44 C368.03,132.51 368.21,132.58 368.38,132.65 C371.54,134.14 374.94,136.04 377.49,137.83 C379.58,139.55 381.42,141.61 383.40,144.32 C384.94,146.41 386.39,147.94 386.62,147.71 C387.16,147.17 385.86,142.07 383.86,136.18 ZM 53.94 280.79 C52.94,284.05 52.15,287.49 51.43,291.50 C49.46,302.54 49.63,306.89 52.32,314.30 C52.82,315.69 53.38,317.02 54.00,318.29 C54.00,318.34 54.00,318.39 54.00,318.45 C54.00,319.13 54.49,319.86 55.13,320.42 C56.87,323.48 58.98,326.15 61.43,328.40 C58.14,325.54 55.48,322.15 53.85,318.57 C53.21,317.16 52.36,316.00 51.96,316.00 C50.88,316.00 49.17,311.07 48.45,305.87 C47.84,301.46 49.49,290.06 50.89,289.00 C51.26,288.73 52.38,285.80 53.39,282.50 C53.56,281.95 53.74,281.38 53.94,280.79 ZM 123.75 254.49 C121.48,257.98 119.67,259.33 118.64,258.30 C117.91,257.57 123.81,249.00 125.05,249.00 C126.58,249.00 126.16,250.78 123.75,254.49 ZM 368.00 6.50 C368.00,5.68 368.67,5.00 369.50,5.00 C370.33,5.00 371.00,5.68 371.00,6.50 C371.00,7.32 370.33,8.00 369.50,8.00 C368.67,8.00 368.00,7.32 368.00,6.50 ZM 168.33 6.10 C165.99,6.63 163.55,7.17 161.50,7.60 C157.73,8.39 153.91,9.33 150.07,10.40 C153.67,9.38 157.33,8.42 161.06,7.54 C163.88,6.88 166.76,6.31 168.33,6.10 ZM 302.93 28.00 C303.80,28.00 305.04,28.83 305.67,29.84 C305.04,28.83 303.78,28.00 302.88,28.00 C301.99,28.00 296.81,25.92 291.37,23.38 C291.07,23.24 290.77,23.10 290.47,22.96 C296.98,25.87 302.22,28.00 302.93,28.00 ZM 263.61 185.73 C263.51,185.77 263.45,185.78 263.42,185.75 C263.15,185.48 262.91,183.47 262.73,180.34 C262.96,183.14 263.26,185.06 263.61,185.73 ZM 64.18 257.43 C63.11,259.39 62.24,261.10 61.60,262.50 C61.50,262.74 61.38,262.99 61.27,263.25 C61.20,263.36 61.14,263.48 61.07,263.59 C61.47,262.75 61.87,261.88 62.29,261.00 C62.71,260.11 63.36,258.90 64.18,257.43 ZM 390.97 166.01 C391.18,167.32 391.38,168.66 391.56,170.00 C392.16,174.36 392.53,178.95 392.68,183.71 C392.53,178.99 392.16,174.44 391.57,170.15 C391.38,168.75 391.17,167.36 390.97,166.01 ZM 362.98 97.17 C362.69,96.89 362.40,96.62 362.11,96.37 C359.25,93.74 356.12,91.71 352.43,89.89 C356.58,91.94 359.95,94.20 362.98,97.17 ZM 263.95 119.50 L 263.32 127.77 L 263.94 119.50 L 267.72 116.20 C270.01,114.21 273.05,111.86 276.43,109.44 C273.05,111.86 270.01,114.21 267.72,116.20 ZM 274.97 174.77 C278.06,171.49 281.14,168.41 284.22,165.52 C281.19,168.38 278.12,171.46 274.97,174.77 ZM 262.61 138.18 C262.68,136.65 262.76,135.24 262.85,134.00 L 262.87 133.83 C262.77,135.23 262.68,136.69 262.61,138.18 Z" fill="rgb(190,187,189)"/>
<path d="M 343.42 326.91 C339.27,329.37 327.64,330.85 326.54,329.06 C326.13,328.41 326.48,327.11 327.30,326.19 C332.36,320.49 337.75,306.74 341.89,289.00 C343.10,283.77 344.50,277.92 344.98,276.00 C346.22,271.10 350.61,249.27 352.52,238.50 C353.40,233.55 354.78,226.12 355.58,222.00 C356.39,217.88 358.60,204.60 360.50,192.50 C361.22,187.93 361.83,183.74 362.33,179.86 C361.06,190.54 358.99,203.58 356.07,219.80 L 355.30 224.09 L 358.40 223.40 C360.11,223.01 362.17,222.83 363.00,222.99 C363.83,223.15 368.94,223.34 374.37,223.39 C383.44,223.49 384.37,223.68 385.75,225.75 C386.83,227.38 388.09,228.24 388.68,227.97 C387.36,235.85 385.80,243.77 384.13,251.00 C379.90,269.18 369.08,295.51 361.36,306.38 C354.22,316.44 346.82,324.91 343.42,326.91 ZM 258.00 164.54 C258.00,177.94 257.66,184.00 256.91,184.00 C254.62,184.00 256.78,131.41 260.00,108.50 C260.62,104.10 261.38,97.81 261.70,94.52 C262.08,90.57 263.11,87.27 264.76,84.79 C266.89,81.57 267.18,80.18 266.81,75.04 C266.57,71.74 266.07,68.73 265.69,68.36 C265.32,67.98 263.88,68.19 262.50,68.82 C259.49,70.19 259.23,69.01 261.56,64.53 C263.12,61.54 262.68,55.28 261.09,57.85 C260.50,58.81 260.03,58.74 259.04,57.55 C256.13,54.04 252.00,56.47 252.00,61.70 C252.00,64.03 251.54,65.00 250.43,65.00 C249.11,65.00 248.96,64.13 249.52,59.70 C250.35,53.07 248.63,50.84 245.17,54.06 C243.09,56.00 242.58,57.97 242.95,62.67 C243.04,63.86 242.50,65.21 241.74,65.67 C239.35,67.11 233.15,77.37 232.16,81.52 C231.64,83.71 230.07,88.88 228.66,93.00 C223.67,107.67 220.03,125.35 216.49,152.00 C215.34,160.70 215.22,161.02 215.12,155.81 C215.00,150.04 219.28,116.44 220.95,110.00 C221.45,108.07 223.05,101.55 224.50,95.50 C231.30,67.26 245.89,31.64 253.16,25.52 C260.52,19.33 272.42,19.70 286.96,26.59 C300.33,32.92 303.12,36.00 295.50,36.00 C290.72,36.00 287.75,39.06 282.88,49.00 C273.55,68.04 264.64,97.19 261.61,118.58 C258.29,141.97 258.00,145.69 258.00,164.54 ZM 311.00 356.07 C305.28,358.98 303.36,359.42 295.00,359.75 C285.85,360.12 285.24,360.00 278.50,356.70 C259.32,347.32 242.26,321.79 230.56,285.00 C224.61,266.27 220.37,248.47 219.59,239.00 L 219.06 232.50 L 220.45 239.65 C221.21,243.58 222.57,249.66 223.47,253.15 C224.37,256.64 225.76,262.65 226.55,266.50 C228.27,274.89 231.78,284.65 236.98,295.50 C249.68,322.02 250.53,323.52 255.73,328.69 C258.63,331.56 261.00,334.59 261.00,335.42 C261.00,337.27 264.87,341.00 266.80,341.00 C267.78,341.00 268.04,340.29 267.64,338.72 C266.82,335.42 269.51,334.09 275.28,334.97 C277.88,335.36 280.00,335.42 280.00,335.09 C280.01,334.77 281.11,335.85 282.45,337.50 L 284.89 340.50 L 288.89 338.25 C291.09,337.01 293.93,335.99 295.20,335.97 C297.56,335.94 300.39,334.27 301.10,332.50 C301.59,331.28 307.02,331.79 308.75,333.22 C309.61,333.93 310.00,333.91 310.00,333.17 C310.00,332.57 308.40,330.83 306.44,329.29 C304.48,327.76 302.24,325.15 301.46,323.50 C300.68,321.85 298.03,317.35 295.56,313.50 C293.10,309.65 291.07,305.98 291.04,305.34 C291.02,304.71 289.49,302.38 287.64,300.17 C285.58,297.71 284.02,294.54 283.62,292.00 C283.25,289.72 281.45,284.85 279.60,281.18 C277.76,277.51 275.93,273.04 275.55,271.25 C274.16,264.86 276.71,268.18 281.31,278.75 C291.67,302.56 308.99,325.97 320.19,331.29 C324.34,333.26 332.72,333.54 336.46,331.84 C340.93,329.80 340.53,331.90 335.44,337.09 C327.69,345.01 318.08,352.46 311.00,356.07 ZM 347.88 291.75 C348.06,293.64 352.75,293.25 354.82,291.18 C356.46,289.54 356.88,289.51 358.85,290.82 C360.06,291.62 361.17,292.10 361.32,291.89 C361.46,291.68 363.02,289.80 364.79,287.72 C366.86,285.27 368.00,282.86 368.00,280.90 C368.00,279.23 368.42,277.09 368.93,276.13 C369.99,274.15 368.69,271.07 367.57,272.89 C366.36,274.85 365.26,274.07 365.74,271.59 C366.39,268.19 362.46,265.78 356.95,266.19 L 352.74 266.50 L 350.44 273.35 C348.49,279.16 347.40,286.96 347.88,291.75 ZM 272.54 256.25 C272.91,257.21 272.81,258.00 272.32,258.00 C270.77,258.00 268.10,252.48 267.43,247.91 C267.08,245.48 265.71,239.99 264.40,235.70 C261.95,227.73 261.31,222.00 262.87,222.00 C263.35,222.00 264.28,224.81 264.94,228.25 C266.05,234.06 270.99,252.26 272.54,256.25 ZM 217.43 215.10 C217.86,219.27 218.01,223.55 217.77,224.60 C217.54,225.64 216.99,223.08 216.57,218.90 C216.14,214.73 215.99,210.45 216.23,209.40 C216.46,208.36 217.01,210.92 217.43,215.10 ZM 392.45 198.95 C392.76,193.72 392.84,188.62 392.68,183.71 L 392.68 183.71 C392.58,180.59 392.39,177.54 392.10,174.59 C392.64,179.45 393.00,184.20 393.00,187.60 C393.00,190.78 392.81,194.63 392.45,198.95 Z" fill="rgb(171,40,52)"/>
<path d="M 258.00 164.54 C258.00,157.48 258.04,152.54 258.27,147.89 C257.53,166.91 258.71,198.70 260.89,210.00 C261.79,214.66 262.69,219.04 263.61,223.20 C263.32,222.45 263.06,222.00 262.87,222.00 C261.31,222.00 261.95,227.73 264.40,235.70 C265.71,239.99 267.08,245.48 267.43,247.91 C268.10,252.48 270.77,258.00 272.32,258.00 C272.49,258.00 272.61,257.91 272.68,257.76 C272.80,258.26 272.89,258.68 272.96,259.00 C273.35,260.92 275.05,265.42 276.75,269.00 C277.17,269.87 277.66,270.92 278.20,272.07 C275.66,267.11 274.52,266.51 275.55,271.25 C275.93,273.04 277.76,277.51 279.60,281.18 C281.45,284.85 283.25,289.72 283.62,292.00 C284.02,294.54 285.58,297.71 287.64,300.17 C289.49,302.38 291.02,304.71 291.04,305.34 C291.07,305.98 293.10,309.65 295.56,313.50 C298.03,317.35 300.68,321.85 301.46,323.50 C302.24,325.15 304.48,327.76 306.44,329.29 C308.40,330.83 310.00,332.57 310.00,333.17 C310.00,333.91 309.61,333.93 308.75,333.22 C307.02,331.79 301.59,331.28 301.10,332.50 C300.39,334.27 297.56,335.94 295.20,335.97 C293.93,335.99 291.09,337.01 288.89,338.25 L 284.89 340.50 L 282.45 337.50 C281.11,335.85 280.01,334.77 280.00,335.09 C280.00,335.42 277.88,335.36 275.28,334.97 C269.51,334.09 266.82,335.42 267.64,338.72 C268.04,340.29 267.78,341.00 266.80,341.00 C264.87,341.00 261.00,337.27 261.00,335.42 C261.00,334.59 258.63,331.56 255.73,328.69 C250.53,323.52 249.68,322.02 236.98,295.50 C231.78,284.65 228.27,274.89 226.55,266.50 C225.76,262.65 224.37,256.64 223.47,253.15 C222.57,249.66 221.21,243.58 220.45,239.65 L 219.06 232.50 L 219.59 239.00 C219.64,239.64 219.71,240.32 219.79,241.03 C218.68,234.73 217.73,228.35 216.94,221.93 C217.27,224.21 217.60,225.36 217.77,224.60 C218.01,223.55 217.86,219.27 217.43,215.10 C217.01,210.92 216.46,208.36 216.23,209.40 C216.00,210.41 216.13,214.43 216.52,218.46 C214.58,201.38 213.81,184.08 214.43,167.50 C214.55,164.23 214.79,160.32 215.12,156.09 C215.23,161.00 215.36,160.54 216.49,152.00 C220.03,125.35 223.67,107.67 228.66,93.00 C230.07,88.88 231.64,83.71 232.16,81.52 C233.15,77.37 239.35,67.11 241.74,65.67 C242.50,65.21 243.04,63.86 242.95,62.67 C242.58,57.97 243.09,56.00 245.17,54.06 C248.63,50.84 250.35,53.07 249.52,59.70 C248.96,64.13 249.11,65.00 250.43,65.00 C251.54,65.00 252.00,64.03 252.00,61.70 C252.00,56.47 256.13,54.04 259.04,57.55 C260.03,58.74 260.50,58.81 261.09,57.85 C262.68,55.28 263.12,61.54 261.56,64.53 C259.23,69.01 259.49,70.19 262.50,68.82 C263.88,68.19 265.32,67.98 265.69,68.36 C266.07,68.73 266.57,71.74 266.81,75.04 C267.18,80.18 266.89,81.57 264.76,84.79 C263.11,87.27 262.08,90.57 261.70,94.52 C261.38,97.81 260.62,104.10 260.00,108.50 C256.78,131.41 254.62,184.00 256.91,184.00 C257.66,184.00 258.00,177.94 258.00,164.54 ZM 347.88 291.75 C347.40,286.96 348.49,279.16 350.44,273.35 L 352.74 266.50 L 356.95 266.19 C362.46,265.78 366.39,268.19 365.74,271.59 C365.26,274.07 366.36,274.85 367.57,272.89 C368.69,271.07 369.99,274.15 368.93,276.13 C368.42,277.09 368.00,279.23 368.00,280.90 C368.00,282.86 366.86,285.27 364.79,287.72 C363.02,289.80 361.46,291.68 361.32,291.89 C361.17,292.10 360.06,291.62 358.85,290.82 C356.88,289.51 356.46,289.54 354.82,291.18 C352.75,293.25 348.06,293.64 347.88,291.75 ZM 252.78 333.00 C242.72,318.52 234.05,298.13 227.50,274.93 C228.46,278.23 229.48,281.60 230.56,285.00 C238.15,308.88 248.00,328.01 259.22,341.06 C256.87,338.46 254.68,335.73 252.78,333.00 ZM 267.02 92.89 C264.46,103.04 262.34,113.92 260.60,125.76 C260.90,123.58 261.23,121.20 261.61,118.58 C262.71,110.76 264.61,101.91 267.02,92.89 ZM 299.20 310.26 C306.64,320.48 314.47,328.57 320.19,331.29 C314.26,328.47 306.62,320.59 299.20,310.26 ZM 217.76 130.08 C218.86,121.18 220.03,113.54 220.95,110.00 C220.20,112.88 218.93,121.23 217.76,130.08 ZM 271.27 252.39 C270.63,250.31 269.89,247.72 269.13,244.97 C269.28,245.48 269.43,245.99 269.58,246.50 C270.16,248.45 270.74,250.50 271.27,252.39 ZM 283.35 283.24 C282.76,281.99 282.18,280.74 281.63,279.48 C282.24,280.81 282.82,282.09 283.35,283.24 Z" fill="rgb(214,29,38)"/>
<path d="M 185.50 395.08 C174.99,393.97 164.58,392.11 154.00,389.45 C144.71,387.12 128.52,381.60 126.51,380.08 C125.95,379.66 123.47,378.53 121.00,377.58 C117.26,376.13 105.96,369.94 97.54,364.72 C90.74,360.50 76.08,348.89 68.25,341.52 C50.73,325.03 36.98,306.26 26.57,284.66 C14.12,258.81 8.46,235.94 7.33,207.00 C5.95,171.85 12.78,140.15 28.14,110.30 C44.99,77.55 68.34,51.85 98.42,32.95 C116.63,21.50 139.98,12.12 161.50,7.60 C165.90,6.67 172.08,5.26 175.23,4.46 C183.08,2.46 212.88,2.52 228.54,4.56 C248.70,7.18 271.07,13.88 291.37,23.38 C296.81,25.92 301.99,28.00 302.88,28.00 C303.78,28.00 305.04,28.83 305.67,29.84 C306.30,30.86 309.26,33.30 312.24,35.28 C315.22,37.26 318.24,39.58 318.95,40.44 C319.66,41.30 320.75,42.00 321.37,42.01 C323.32,42.03 345.13,62.18 352.78,71.03 C370.42,91.44 384.91,118.25 392.47,144.43 C404.55,186.32 401.60,237.57 384.99,274.50 C383.51,277.80 381.28,282.75 380.04,285.50 C372.51,302.17 357.93,322.28 341.58,338.52 C315.04,364.91 280.86,383.72 246.00,391.15 C227.84,395.01 201.23,396.74 185.50,395.08 ZM 230.50 386.56 C234.35,385.70 238.94,385.00 240.70,385.00 C243.55,385.00 247.89,384.03 257.43,381.25 C259.05,380.78 260.57,379.79 260.81,379.06 C261.18,377.97 258.88,377.86 248.34,378.44 C240.33,378.89 230.79,378.71 223.22,377.98 C211.64,376.86 210.63,376.92 203.75,379.01 C197.28,380.97 180.31,382.84 167.75,382.96 C158.20,383.06 167.39,386.48 181.27,388.00 C192.54,389.23 222.44,388.36 230.50,386.56 ZM 148.03 366.81 C152.34,364.71 157.56,361.12 160.36,358.33 C168.06,350.67 182.90,327.53 195.83,303.00 C198.87,297.23 205.09,285.58 209.65,277.13 L 217.95 261.76 L 215.57 248.13 C213.40,235.70 211.99,220.03 210.39,190.75 C210.07,184.84 209.46,180.00 209.04,180.00 C206.55,180.00 185.29,216.56 169.48,248.00 C157.68,271.47 142.75,299.89 139.13,305.78 C120.80,335.57 103.41,345.93 80.69,340.60 C76.94,339.72 73.66,339.00 73.39,339.00 C71.09,339.00 85.36,351.16 96.50,358.67 C102.71,362.87 113.64,368.68 118.00,370.12 C119.38,370.57 125.01,370.83 130.53,370.70 C139.81,370.48 141.13,370.19 148.03,366.81 ZM 311.00 356.07 C318.08,352.46 327.69,345.01 335.44,337.09 C340.53,331.90 340.93,329.80 336.46,331.84 C332.72,333.54 324.34,333.26 320.19,331.29 C309.92,326.41 292.84,304.19 283.46,283.50 C281.47,279.10 278.45,272.58 276.75,269.00 C275.05,265.42 273.35,260.92 272.96,259.00 C272.57,257.08 271.05,251.45 269.58,246.50 C266.36,235.65 263.61,224.10 260.89,210.00 C258.29,196.52 257.11,153.84 258.92,138.52 C263.27,101.62 270.71,73.82 282.88,49.00 C287.75,39.06 290.72,36.00 295.50,36.00 C303.12,36.00 300.33,32.92 286.96,26.59 C272.42,19.70 260.52,19.33 253.16,25.52 C245.89,31.64 231.30,67.26 224.50,95.50 C223.05,101.55 221.45,108.07 220.95,110.00 C218.72,118.56 215.04,151.07 214.43,167.50 C212.17,227.98 228.37,297.88 252.78,333.00 C259.62,342.83 270.32,352.70 278.50,356.70 C285.24,360.00 285.85,360.12 295.00,359.75 C303.36,359.42 305.28,358.98 311.00,356.07 ZM 84.98 336.75 C84.98,336.61 84.32,334.70 83.53,332.50 C81.78,327.66 81.59,317.02 83.12,309.80 C83.74,306.88 85.83,301.12 87.77,297.00 C91.92,288.18 104.78,268.00 109.45,263.00 C111.24,261.08 116.24,254.77 120.55,249.00 C124.86,243.23 131.79,234.23 135.96,229.00 C175.47,179.50 196.91,143.13 207.87,107.00 C209.62,101.22 211.47,95.15 211.98,93.50 C212.49,91.85 213.65,85.32 214.57,79.00 C216.51,65.64 216.07,42.69 213.67,32.00 C212.07,24.90 206.19,14.08 202.23,10.96 C198.32,7.89 188.61,8.79 179.50,13.07 C177.30,14.10 173.29,15.87 170.58,16.99 L 165.66 19.04 L 168.22 21.77 C171.73,25.53 173.42,29.26 175.48,37.81 C177.85,47.64 177.15,70.93 174.16,82.00 C166.17,111.51 153.35,135.20 129.33,164.86 C110.89,187.62 97.49,205.56 84.29,225.17 C75.76,237.82 64.87,255.57 62.29,261.00 C57.90,270.27 54.98,277.30 53.39,282.50 C52.38,285.80 51.26,288.73 50.89,289.00 C49.49,290.06 47.84,301.46 48.45,305.87 C49.17,311.07 50.88,316.00 51.96,316.00 C52.36,316.00 53.21,317.16 53.85,318.57 C57.34,326.24 65.61,333.07 74.50,335.65 C78.05,336.67 85.02,337.41 84.98,336.75 ZM 109.00 332.83 C115.27,329.50 122.77,323.44 121.81,322.48 C121.46,322.12 118.32,323.22 114.85,324.92 C107.82,328.35 101.08,329.00 98.97,326.47 C95.91,322.78 96.84,309.85 100.98,298.50 C104.80,288.03 113.21,270.53 117.16,264.85 C119.25,261.83 119.46,260.40 117.96,259.47 C116.53,258.59 114.00,260.85 114.00,262.99 C114.00,263.94 111.30,268.15 108.00,272.34 C104.70,276.52 102.00,280.24 102.00,280.60 C102.00,280.95 100.05,284.46 97.66,288.40 C90.03,300.96 85.34,315.42 86.25,323.52 C86.91,329.42 90.10,335.30 93.09,336.11 C97.05,337.19 103.15,335.93 109.00,332.83 ZM 343.42 326.91 C346.82,324.91 354.22,316.44 361.36,306.38 C369.08,295.51 379.90,269.18 384.13,251.00 C389.12,229.48 393.00,201.78 393.00,187.60 C393.00,178.14 390.23,158.28 388.39,154.53 C387.56,152.83 387.19,150.40 387.54,148.83 C388.25,145.56 383.63,133.31 374.96,115.50 C367.92,101.02 362.47,94.83 352.43,89.89 C345.80,86.63 345.10,86.50 334.02,86.51 C320.59,86.52 313.20,88.44 298.50,95.76 C289.53,100.23 274.89,109.94 267.72,116.20 L 263.94 119.50 L 262.85 134.00 C261.79,148.17 262.19,184.52 263.42,185.75 C263.76,186.09 268.53,181.60 274.03,175.76 C290.22,158.58 304.43,147.56 320.66,139.63 C345.57,127.45 359.98,126.54 373.64,136.26 C379.21,140.23 379.51,142.29 374.03,138.92 C371.29,137.23 368.61,136.12 368.09,136.44 C367.57,136.77 366.86,136.58 366.51,136.02 C366.16,135.46 364.51,135.00 362.83,135.00 C360.33,135.00 359.91,135.31 360.49,136.75 C365.21,148.54 365.22,162.49 360.50,192.50 C358.60,204.60 356.39,217.88 355.58,222.00 C354.78,226.12 353.40,233.55 352.52,238.50 C350.61,249.27 346.22,271.10 344.98,276.00 C344.50,277.92 343.10,283.77 341.89,289.00 C337.75,306.74 332.36,320.49 327.30,326.19 C326.48,327.11 326.13,328.41 326.54,329.06 C327.64,330.85 339.27,329.37 343.42,326.91 ZM 325.26 320.25 C328.43,316.94 332.32,308.40 334.51,299.97 C336.35,292.87 335.86,291.28 333.28,295.96 C327.73,306.02 326.14,307.88 322.55,308.56 C319.58,309.11 318.36,308.75 315.29,306.41 C305.58,299.00 293.73,284.36 287.61,272.23 C285.72,268.46 283.48,264.82 282.65,264.12 C281.81,263.43 280.82,261.43 280.44,259.68 C280.06,257.93 279.13,255.61 278.37,254.53 C277.02,252.59 277.00,252.59 277.00,254.72 C277.00,255.91 277.39,257.12 277.86,257.42 C278.34,257.71 279.31,260.10 280.02,262.72 C281.50,268.17 283.26,272.33 290.13,286.65 C292.81,292.24 295.00,297.01 295.00,297.27 C295.00,298.78 305.53,313.18 309.16,316.62 C316.82,323.90 320.89,324.81 325.26,320.25 ZM 27.09 256.81 C26.49,252.34 26.00,241.76 26.00,233.31 C26.00,221.29 25.64,217.13 24.37,214.22 C23.47,212.17 22.38,208.70 21.95,206.50 C18.71,190.14 17.82,184.43 17.32,176.75 C17.01,171.94 16.42,168.00 16.02,168.00 C13.97,168.00 13.11,210.10 14.98,218.24 C15.82,221.86 17.65,232.96 19.72,247.00 C20.00,248.93 20.58,250.95 20.99,251.50 C21.40,252.05 22.32,254.30 23.03,256.50 C25.24,263.37 27.27,267.55 27.74,266.22 C27.98,265.51 27.70,261.28 27.09,256.81 ZM 123.75 254.49 C126.16,250.78 126.58,249.00 125.05,249.00 C123.81,249.00 117.91,257.57 118.64,258.30 C119.67,259.33 121.48,257.98 123.75,254.49 ZM 54.16 178.48 C63.70,173.80 72.62,169.32 74.00,168.54 L 76.50 167.11 L 76.13 150.81 C75.27,112.51 85.02,82.26 106.79,55.65 C120.13,39.34 142.84,23.54 165.74,14.64 C178.21,9.80 175.98,8.65 160.50,11.95 C133.54,17.68 102.05,33.27 80.81,51.40 C67.68,62.60 55.16,79.71 47.43,97.00 C46.08,100.03 44.48,103.36 43.88,104.40 C42.47,106.87 39.82,114.99 36.35,127.50 C33.70,137.07 33.58,138.49 33.54,160.60 C33.51,178.75 33.79,184.05 34.87,185.35 C35.63,186.26 36.37,187.00 36.53,187.00 C36.69,187.00 44.62,183.17 54.16,178.48 ZM 357.42 178.25 C358.86,172.15 359.28,147.09 358.02,142.58 C356.10,135.70 354.15,134.49 345.15,134.54 C338.25,134.58 336.71,134.98 329.43,138.63 C320.52,143.09 314.34,147.28 315.88,147.79 C316.43,147.98 320.53,146.53 324.98,144.57 C329.43,142.61 335.45,140.73 338.35,140.39 C343.25,139.81 343.82,139.98 346.61,142.77 C350.37,146.53 352.63,154.19 353.98,167.79 C354.54,173.45 355.00,178.74 355.00,179.54 C355.00,182.06 356.74,181.13 357.42,178.25 ZM 157.67 111.43 C158.86,109.78 160.70,105.97 161.76,102.96 C162.82,99.96 164.85,94.35 166.26,90.50 C174.98,66.75 174.68,35.48 165.64,25.25 C161.72,20.82 152.87,22.79 142.19,30.46 C135.43,35.31 135.19,37.98 141.80,34.63 C149.64,30.67 155.54,31.95 158.36,38.24 C161.74,45.74 162.40,49.83 162.44,63.50 C162.50,78.24 161.47,85.54 157.24,100.50 C155.84,105.45 154.58,110.40 154.44,111.50 C154.30,112.60 153.70,114.77 153.09,116.32 C151.38,120.72 151.88,121.89 153.78,117.96 C154.73,116.02 156.47,113.07 157.67,111.43 ZM 332.42 61.13 C320.24,49.41 304.32,39.00 298.57,39.00 C294.53,39.00 290.79,41.60 287.16,46.91 C283.63,52.08 280.00,60.83 280.00,64.15 C280.00,65.84 280.79,65.25 283.72,61.39 C293.57,48.42 300.34,46.95 315.56,54.50 C320.54,56.98 325.50,59.79 326.57,60.75 C331.46,65.15 335.67,67.91 337.50,67.92 C339.00,67.93 337.71,66.22 332.42,61.13 ZM 242.25 16.05 C243.72,15.95 242.97,13.06 241.25,12.17 C238.84,10.93 221.16,9.93 220.50,10.99 C220.21,11.47 220.99,12.17 222.24,12.55 C223.48,12.93 225.18,13.81 226.00,14.52 C228.25,16.43 231.41,16.73 242.25,16.05 Z" fill="rgb(249,249,249)"/>
</g>
</svg>